<?xml version="1.0" encoding="UTF-8" standalone="no"?>
<svg
   xmlns:dc="http://purl.org/dc/elements/1.1/"
   xmlns:cc="http://creativecommons.org/ns#"
   xmlns:rdf="http://www.w3.org/1999/02/22-rdf-syntax-ns#"
   xmlns:svg="http://www.w3.org/2000/svg"
   xmlns="http://www.w3.org/2000/svg"
   xmlns:sodipodi="http://sodipodi.sourceforge.net/DTD/sodipodi-0.dtd"
   xmlns:inkscape="http://www.inkscape.org/namespaces/inkscape"
   viewBox="0 0 1024 1024"
   version="1.1"
   id="svg68"
   sodipodi:docname="logo.svg"
   inkscape:version="1.0.1 (3bc2e813f5, 2020-09-07)">
  <metadata
     id="metadata74">
    <rdf:RDF>
      <cc:Work
         rdf:about="">
        <dc:format>image/svg+xml</dc:format>
        <dc:type
           rdf:resource="http://purl.org/dc/dcmitype/StillImage" />
      </cc:Work>
    </rdf:RDF>
  </metadata>
  <defs
     id="defs72" />
  <sodipodi:namedview
     pagecolor="#ffffff"
     bordercolor="#666666"
     borderopacity="1"
     objecttolerance="10"
     gridtolerance="10"
     guidetolerance="10"
     inkscape:pageopacity="0"
     inkscape:pageshadow="2"
     inkscape:window-width="1872"
     inkscape:window-height="1039"
     id="namedview70"
     showgrid="false"
     inkscape:zoom="0.60974149"
     inkscape:cx="462.40743"
     inkscape:cy="597.17986"
     inkscape:window-x="48"
     inkscape:window-y="0"
     inkscape:window-maximized="1"
     inkscape:current-layer="svg68" />
  <g
     stroke-width="2"
     fill="none"
     id="g34"
     transform="matrix(1.44242,0,0,1.44242,-225.786,-225.31)"
     inkscape:export-xdpi="483.07001"
     inkscape:export-ydpi="483.07001">
    <path
       stroke="#80ccee"
       vector-effect="non-scaling-stroke"
       d="M 742.23,375.28 513.75,536.81 a 0.7,0.7 0 0 0 0,1.14 l 22.61,15.9"
       id="path2" />
    <path
       stroke="#80a8bc"
       vector-effect="non-scaling-stroke"
       d="m 536.36,553.85 q 2.42,1.66 4,2.77 83.74,58.89 167.47,117.77 8.92,6.28 6.33,17.74"
       id="path4" />
    <path
       stroke="#8da0ac"
       vector-effect="non-scaling-stroke"
       d="m 714.16,692.13 q -2.77,3.92 -4.59,5.45 -25.21,21.2 -49.19,43.78 c -11.22,10.58 -26.05,23.81 -41.87,25.37 -7.57,0.75 -17.01,-0.36 -23.89,0.28 q -5.62,0.53 -11.11,2.01 -58.8,15.88 -118.97,5.97 -16.28,-2.68 -32.32,-6.54 -8.02,-1.93 -12.98,-1.68 c -8.26,0.42 -17.05,0.9 -24.9,-1.37 Q 383.59,762.28 372.52,755.95 346.97,741.34 327.8,726.2 C 230.62,649.5 192.68,519.8 240.03,404.67 286.89,290.73 409.34,219.4 531,228.39 q 83.29,6.15 149.17,57.91 1.42,1.11 5.12,5.28"
       id="path6" />
    <path
       stroke="#80ccee"
       vector-effect="non-scaling-stroke"
       d="m 685.29,291.58 q 2.4,14.84 -10.35,17.39 c -3.46,0.7 -7.59,-0.39 -10.35,-2.3 Q 647.11,294.64 632.46,286.76 C 589.41,263.63 538.9,252.42 489.76,256.81 q -79.91,7.15 -143.78,54.15 c -63.68,46.86 -100.51,120.37 -99.89,199.55 0.61,76.87 40.71,149.23 102.42,194.77 36.65,27.06 79.86,45.14 125.14,51.46 68.01,9.49 136.61,-9.27 192.3,-49.53 q 7.9,-5.72 15.43,-11.74 0.5,-0.39 -0.02,-0.76 -80.57,-56.25 -161.18,-112.65 -19.97,-13.97 -39.61,-28.41 c -8.81,-6.47 -11.42,-19.15 -5.26,-28.01 q 1.34,-1.93 10.1,-9.55 47.53,-41.4 95.37,-82.45 c 44.25,-37.97 87.97,-76.49 132.05,-114.43"
       id="path8" />
    <path
       stroke="#8da0ac"
       vector-effect="non-scaling-stroke"
       d="m 712.83,319.21 q 9.09,-7.78 17.68,-15.72 c 6.55,-6.07 10.38,-9.2 9.45,-17.75 -2.93,-26.97 -25.54,-46.22 -51.75,-48.23 q -7.43,-0.57 -9.3,-1.37 c -6.45,-2.79 -8.79,-11.08 -12.7,-16.57 -8.74,-12.29 -22.73,-17.52 -37.59,-14.73 -6.51,1.23 -11.12,2.13 -15.69,-1.46 -4.36,-3.42 -9.09,-9.68 -14.04,-13 -11.94,-8 -24.86,-8.13 -38.14,-2.34 -6.58,2.86 -11.59,5.56 -18.15,0.39 q -6.92,-5.46 -8.9,-6.65 c -16.02,-9.62 -37.46,-6.85 -51.01,6.16 q -3.87,3.72 -9.1,3.34 c -4.98,-0.37 -11.34,-4.6 -15.82,-5.83 -13.37,-3.67 -26.16,-0.7 -36.02,8.74 -5.78,5.54 -10.33,13.54 -20.01,11.39 -18.93,-4.2 -34.36,-0.59 -45.11,16.26 -4.39,6.88 -6.6,14.91 -16.61,14.87 -4.74,-0.03 -9.98,-0.23 -14.37,0.56 -15.81,2.83 -24.94,12.06 -31.38,26.21 -2.23,4.91 -4.1,11.12 -8.58,14.43 q -1.94,1.44 -6.79,2.8 -11.04,3.1 -16.95,6.03 c -26.44,13.1 -43.37,38.62 -44.08,68.11 q -0.15,6.13 -0.64,7.78 c -1.74,5.92 -8.8,10.97 -13.3,14.98 q -6.34,5.65 -8.63,8.52 c -11.69,14.66 -9.87,30.72 -6.45,48.16 q 1.03,5.28 -1.95,9.1 -8.04,10.3 -10.1,13.41 c -13.85,20.85 -17.8,46.12 -13.95,70.65 q 4.18,26.57 24.47,47 2.03,2.04 2.93,5.17 0.66,2.3 0.01,5.74 c -2,10.53 -4.36,20.55 -2.02,31.24 2.34,10.67 9.28,19.57 17.9,26.25 5.07,3.93 12.54,9.26 12.89,13.9 0.51,6.56 -0.21,15.77 0.84,22.63 3.92,25.71 23.29,47.43 46.44,57.73 q 2.8,1.24 8.62,3.24 c 6.35,2.19 13.37,3.16 16.01,10.41 1.62,4.45 2.89,9.71 4.79,13.53 7.52,15.13 21.07,22.51 38.22,22.69 6.86,0.08 11.32,0.94 15.8,5.77 3.16,3.4 7.79,11.56 11.8,15.7 q 11.84,12.22 29.08,11.7 c 5.06,-0.15 15.38,-2.91 20.01,0.68 5.76,4.47 11.8,9.75 17.38,13.27 16.68,10.55 35.99,15.2 55.46,11 7.98,-1.72 15.72,-6.11 23.87,-7.25 7.17,-1.01 14.42,1.21 21.41,4.34 q 12.76,5.73 29.5,4.3 c 20.03,-1.71 35.19,-10.91 51.24,-22.89 7.05,-5.26 10.81,-4.24 18.82,-3.7 13.28,0.9 24.73,-2.43 34.23,-11.86 7.28,-7.23 10.76,-19.64 21.24,-22.25 q 11.41,-2.84 22.71,-6 c 32.38,-9.03 59.4,-29.17 70.74,-61.78 2.05,-5.88 4.29,-14.14 8.87,-18.15 12.6,-11.01 23.22,-18.68 24.47,-36.97 0.65,-9.46 -3.94,-18.46 4.87,-25.45 11.82,-9.37 22.32,-17.7 23.87,-33.86 0.68,-7.11 -1.1,-16.94 -2.89,-24.09 -1.95,-7.76 -0.02,-11.55 5.12,-17.88 q 26.65,-32.86 18.9,-74.27 c -3.84,-20.51 -13.86,-34.93 -27.29,-50.27 -2.82,-3.22 -4.79,-6.48 -4.59,-11.05 q 0.32,-7.3 0.17,-12.27 c -0.73,-22.99 -13.82,-44.78 -32.09,-57.97 q -5.92,-4.28 -10.53,-5.16 -6.42,-1.24 -12.15,2.06 -8.25,4.76 -31.74,22.6"
       id="path10" />
    <path
       stroke="#106d9d"
       vector-effect="non-scaling-stroke"
       d="M 712.83,319.21 Q 700.14,304.26 685.29,291.58"
       id="path12" />
    <path
       stroke="#10496b"
       vector-effect="non-scaling-stroke"
       d="m 714.16,692.13 q 5.59,-1.27 10.05,-6.36 3.99,-4.56 4.04,-4.6 c 9.28,-9.68 15.02,-18.32 23.84,-30.99 q 6.45,-9.27 10.6,-16.77 10.7,-19.33 16.36,-35.91 3.61,-10.59 8.35,-31.4 c 1.52,-6.69 2.27,-13.72 3.17,-20.6 1.69,-12.93 1.39,-26.37 2.16,-39.5 q 0.06,-0.96 -0.99,-1.43"
       id="path14" />
    <path
       stroke="#106d9d"
       vector-effect="non-scaling-stroke"
       d="M 791.74,504.57 C 787.28,458.12 772.2,412.89 742.62,376.21 a 0.9,0.85 16.6 0 1 -0.14,-0.24 l -0.25,-0.69"
       id="path16" />
    <path
       stroke="#0375ad"
       vector-effect="non-scaling-stroke"
       d="m 749.72,529.98 q -1.27,2.9 -1.35,4.26 c -1.74,30.26 -8.54,57.56 -24.7,83.66 -2.96,4.78 -8.94,10.79 -9.5,16.22 -0.65,6.27 4.05,11.4 10.39,11 7.47,-0.47 11.26,-7.87 15.78,-15.28 q 26.93,-44.13 28.89,-96.09 0.04,-0.89 -1.07,-2.03 m 23.58,-27.15 q -0.35,0.49 -1.48,0.71 -10.4,2 -21.03,3.92"
       id="path18" />
    <path
       stroke="#80ccee"
       vector-effect="non-scaling-stroke"
       d="m 769.23,509.2 q -2.88,-43.46 -22.54,-83.15 c -2.04,-4.11 -4.84,-8.48 -9.55,-9.35 -6.6,-1.23 -13.26,3.06 -12.43,10.26 q 0.25,2.22 2.83,7.34 18.36,36.43 20.99,77.76"
       id="path20" />
    <path
       stroke="#0375ad"
       vector-effect="non-scaling-stroke"
       d="m 748.53,512.06 q -45.23,8.88 -90.44,17.22 c -32.08,5.92 -64.05,12.59 -96.1,18.68 q -6.82,1.3 -25.63,5.89"
       id="path22" />
    <path
       stroke="#80a8bc"
       vector-effect="non-scaling-stroke"
       d="m 769.23,509.2 c 0.5,8.1 1.59,16.58 -1.07,22.52"
       id="path24" />
    <path
       stroke="#80ccee"
       vector-effect="non-scaling-stroke"
       d="m 768.16,531.72 q -9.35,8.63 -18.44,-1.74"
       id="path26" />
    <path
       stroke="#80a8bc"
       vector-effect="non-scaling-stroke"
       d="m 749.72,529.98 q -1.43,-8.18 -1.19,-17.92"
       id="path28" />
    <path
       stroke="#80ccee"
       vector-effect="non-scaling-stroke"
       d="m 475.799,311.654 a 10.06,10.06 0 0 0 -11.287,-8.661 l -0.892,0.117 a 10.06,10.06 0 0 0 -8.661,11.287 l 5.662,43.01 a 10.06,10.06 0 0 0 11.287,8.66 l 0.892,-0.117 a 10.06,10.06 0 0 0 8.661,-11.287 l -5.662,-43.01 m 117.068,21.064 a 9.95,9.95 0 0 0 -3.879,-13.527 l -0.7,-0.387 a 9.95,9.95 0 0 0 -13.526,3.878 l -16.309,29.422 a 9.95,9.95 0 0 0 3.879,13.527 l 0.7,0.387 a 9.95,9.95 0 0 0 13.526,-3.878 l 16.309,-29.422 m -228.571,88.16 a 10.46,10.46 0 0 0 -1.802,-14.682 l -32.403,-25.316 a 10.46,10.46 0 0 0 -14.683,1.803 l -0.345,0.44 a 10.46,10.46 0 0 0 1.803,14.683 l 32.403,25.316 a 10.46,10.46 0 0 0 14.683,-1.802 l 0.344,-0.442 m 72.981,-22.934 a 9.72,9.72 0 0 0 -13.561,-2.245 l -0.537,0.384 a 9.72,9.72 0 0 0 -2.245,13.562 l 19.268,26.913 a 9.72,9.72 0 0 0 13.562,2.245 l 0.537,-0.384 a 9.72,9.72 0 0 0 2.245,-13.562 l -19.269,-26.913 m -28.701,88.05 a 9.19,9.19 0 0 0 -8.354,-9.956 l -24.905,-2.179 a 9.19,9.19 0 0 0 -9.956,8.354 l -0.117,1.335 a 9.19,9.19 0 0 0 8.354,9.956 l 24.905,2.179 a 9.19,9.19 0 0 0 9.956,-8.354 l 0.117,-1.335 m -70.381,45.693 a 10.25,10.25 0 0 0 -11.546,-8.764 l -36.043,4.937 a 10.25,10.25 0 0 0 -8.764,11.546 l 0.163,1.19 a 10.25,10.25 0 0 0 11.546,8.763 l 36.043,-4.937 a 10.25,10.25 0 0 0 8.764,-11.546 l -0.163,-1.19 m 135.675,55.119 a 9.74,9.74 0 0 0 -4.96,-12.851 l -0.676,-0.3 a 9.74,9.74 0 0 0 -12.85,4.959 l -10.753,24.264 a 9.74,9.74 0 0 0 4.958,12.851 l 0.677,0.3 a 9.74,9.74 0 0 0 12.85,-4.959 l 10.753,-24.264 m -77.177,26.254 a 10.54,10.54 0 0 0 -14.801,-1.765 l -28.574,22.485 a 10.54,10.54 0 0 0 -1.765,14.801 l 0.396,0.503 a 10.54,10.54 0 0 0 14.801,1.765 l 28.574,-22.485 a 10.54,10.54 0 0 0 1.765,-14.801 l -0.396,-0.503"
       id="path30" />
    <path
       stroke="#0375ad"
       vector-effect="non-scaling-stroke"
       d="m 693.328,583.976 a 10.62,10.62 0 0 0 -6.865,-13.358 l -40.199,-12.906 a 10.62,10.62 0 0 0 -13.358,6.865 l -0.214,0.666 a 10.62,10.62 0 0 0 6.865,13.359 l 40.199,12.906 a 10.62,10.62 0 0 0 13.358,-6.865 l 0.214,-0.666"
       id="path32" />
  </g>
  <path
     fill="#1d415a"
     d="M 802.41425,235.12489 Q 784.10994,213.56071 762.69,195.27082 757.35305,189.25593 755.30481,187.65485 660.27818,112.99519 540.13902,104.1243 C 364.6542,91.156948 188.02987,194.04477 120.43807,358.3941 52.139486,524.45992 106.8649,711.54179 247.03928,822.1754 q 27.65119,21.83824 64.50502,42.912 15.96759,9.13052 31.4736,13.63087 c 11.323,3.27429 24.00187,2.58193 35.91626,1.97611 q 7.1544,-0.3606 18.72261,2.42327 23.13642,5.56774 46.61902,9.43343 86.79041,14.29438 171.6047,-8.61125 7.91889,-2.13478 16.02529,-2.89927 c 9.92385,-0.92314 23.54029,0.67794 34.45941,-0.40387 22.81909,-2.25018 44.21018,-21.3334 60.39413,-36.5942 q 34.58923,-32.56984 70.95264,-63.14915 2.6252,-2.2069 6.62071,-7.86119 8.06312,-1.83187 14.49632,-9.17379 5.75525,-6.57743 5.82737,-6.63513 c 13.38566,-13.96262 21.66515,-26.42513 34.3873,-44.70059 q 9.30361,-13.37124 15.28965,-24.18939 15.43389,-27.88198 23.59799,-51.7973 5.20714,-15.27523 12.04421,-45.29199 c 2.19248,-9.64979 3.27429,-19.79 4.57247,-29.71385 2.43769,-18.65049 2.00496,-38.03662 3.11563,-56.97559 q 0.0865,-1.38472 -1.428,-2.06266 C 909.80242,435.49145 888.05072,370.25079 845.38394,317.34283 a 1.298178,1.226057 16.6 0 1 -0.20194,-0.34618 l -0.3606,-0.99527 q 33.88244,-25.73278 45.78241,-32.59869 8.26506,-4.75999 17.5254,-2.97139 6.64956,1.26933 15.18868,7.44289 c 26.35302,19.02552 45.23429,50.45585 46.28726,83.61709 q 0.21636,7.16882 -0.24521,17.69849 c -0.28848,6.59186 2.55308,11.29415 6.62071,15.93874 19.3717,22.12672 33.82475,42.92642 39.36365,72.51045 q 11.1787,59.73061 -27.26175,107.12854 c -7.41404,9.13051 -10.19791,14.59729 -7.38519,25.79047 2.58193,10.3133 5.14944,24.49229 4.16859,34.74789 -2.23575,23.30951 -17.38116,35.32487 -34.43056,48.84034 -12.70772,10.08252 -6.08701,23.0643 -7.02459,36.70959 -1.80302,26.38187 -17.12152,37.44523 -35.29601,53.32627 -6.60629,5.78411 -9.83731,17.69849 -12.79427,26.17992 -16.35704,47.03732 -55.33123,76.08766 -102.03679,89.11271 q -16.29935,4.55805 -32.75736,8.65452 c -15.11656,3.76472 -20.13618,21.66515 -30.637,32.09385 -13.70299,13.60202 -30.2187,18.40528 -49.37404,17.1071 -11.55378,-0.77891 -16.97728,-2.25018 -27.14634,5.33695 -23.15084,17.28019 -45.01793,30.55046 -73.9096,33.017 q -24.14611,2.06266 -42.55139,-6.20241 c -10.08252,-4.51477 -20.54006,-7.71695 -30.88221,-6.2601 -11.75573,1.64436 -22.92006,7.97658 -34.43057,10.45754 -28.08392,6.05817 -55.93705,-0.64909 -79.99661,-15.86662 -8.04871,-5.07732 -16.76092,-12.69329 -25.06926,-19.14091 -6.67841,-5.17829 -21.56418,-1.19721 -28.86283,-0.98085 q -24.86732,0.75006 -41.94557,-16.87631 c -5.7841,-5.97162 -12.46251,-17.74177 -17.02056,-22.64599 -6.46204,-6.96689 -12.89523,-8.20737 -22.79023,-8.32277 -24.7375,-0.25963 -44.2823,-10.90469 -55.12929,-32.72851 -2.7406,-5.51004 -4.57247,-13.09717 -6.9092,-19.51594 -3.80798,-10.45755 -13.93377,-11.85669 -23.09314,-15.01559 q -8.39488,-2.88484 -12.43366,-4.67344 C 124.95285,823.05528 97.013172,791.72592 91.358885,754.6413 89.844344,744.7463 90.882887,731.46161 90.147253,721.99934 89.642406,715.30651 78.867528,707.61841 71.554459,701.9497 59.120798,692.31433 49.110404,679.47679 45.735141,664.08617 c -3.375263,-15.41947 0.02885,-29.87252 2.913688,-45.0612 q 0.937573,-4.96192 -0.01442,-8.27949 -1.298178,-4.51477 -4.226291,-7.45731 Q 15.141413,573.81953 9.112097,535.49443 C 3.55878,500.11187 9.256339,463.66191 29.233856,433.58746 q 2.971385,-4.48593 14.568442,-19.34286 4.298412,-5.51004 2.812719,-13.12602 c -4.933076,-25.1558 -7.558281,-48.32107 9.303609,-69.46695 q 3.303142,-4.13974 12.448085,-12.28941 c 6.49089,-5.78411 16.674375,-13.06833 19.184186,-21.60746 q 0.706785,-2.37999 0.923148,-11.22202 c 1.024119,-42.53697 25.444285,-79.34753 63.581875,-98.24323 q 8.5247,-4.22629 24.44902,-8.69779 6.99573,-1.96169 9.79403,-4.03878 c 6.46204,-4.77441 9.15937,-13.73184 12.37596,-20.81412 9.28919,-20.41024 22.45848,-33.72378 45.26314,-37.80583 6.33223,-1.13951 13.89051,-0.85102 20.72758,-0.80775 14.43862,0.0577 17.62637,-11.52494 23.95859,-21.448787 15.50602,-24.304777 37.76256,-29.511913 65.06757,-23.453749 13.96263,3.101203 20.52564,-8.438157 28.86282,-16.429164 14.22227,-13.616445 32.67082,-17.900432 51.95597,-12.606751 6.46204,1.774177 15.63584,7.875613 22.81909,8.409309 q 7.54385,0.548119 13.12602,-4.817683 c 19.54479,-18.765884 50.47028,-22.761388 73.57784,-8.885307 q 2.856,1.716479 12.83754,9.592093 c 9.46228,7.457311 16.6888,3.562777 26.17992,-0.562544 19.15534,-8.351612 37.79141,-8.164097 55.0139,3.375263 7.13998,4.788834 13.96263,13.818383 20.25158,18.75146 6.59186,5.178287 13.24142,3.880109 22.63157,2.105933 21.43436,-4.024352 41.61382,3.519505 54.22057,21.246846 5.63986,7.918886 9.01512,19.876551 18.31873,23.900901 q 2.69733,1.15393 13.41451,1.97611 c 37.80583,2.89927 70.41894,30.66585 74.64523,69.56792 1.34145,12.33269 -4.18301,16.84747 -13.63087,25.60296 q -12.39038,11.45281 -25.50198,22.67484 z"
     id="path36"
     style="stroke-width:1.44242"
     inkscape:export-xdpi="483.07001"
     inkscape:export-ydpi="483.07001" />
  <path
     fill="#0399df"
     d="m 762.69,195.27082 q 21.41994,18.28989 39.72425,39.85407 C 738.83237,289.8503 675.76977,345.41232 611.94269,400.18101 q -69.00538,59.21134 -137.5636,118.92753 -12.6356,10.99124 -14.56844,13.77511 c -8.88531,12.77984 -5.12059,31.06973 7.58713,40.40218 q 28.32913,20.82855 57.13426,40.97916 116.27347,81.35248 232.48925,162.48861 0.75006,0.53369 0.0289,1.09624 -10.86142,8.68337 -22.25654,16.93401 C 654.46523,852.85568 555.51522,879.91548 457.41623,866.22691 392.10346,857.11082 329.77649,831.03186 276.91179,791.99998 187.90006,726.31217 130.05901,621.93866 129.17914,511.05983 128.28484,396.84902 181.40917,290.81672 273.26247,223.22492 q 92.12737,-67.79374 207.39115,-78.10704 c 70.88052,-6.33222 143.73715,9.8373 205.83333,43.20048 q 21.13146,11.36627 46.34496,28.71858 c 3.98108,2.75502 9.93827,4.32726 14.92904,3.31757 q 18.39086,-3.67817 14.92905,-25.08369 z m -302.17401,28.95514 a 14.510745,14.510745 0 0 0 -16.28059,-12.4928 l -1.28664,0.16877 a 14.510745,14.510745 0 0 0 -12.4928,16.28059 l 8.16698,62.03848 a 14.510745,14.510745 0 0 0 16.2806,12.49136 l 1.28664,-0.16876 a 14.510745,14.510745 0 0 0 12.4928,-16.2806 z m 168.86123,30.3817 a 14.352079,14.352079 0 0 0 -5.59515,-19.51162 l -1.00969,-0.55966 a 14.352079,14.352079 0 0 0 -19.51018,5.59659 l -23.52442,42.43744 a 14.352079,14.352079 0 0 0 5.59514,19.51161 l 1.0097,0.55822 a 14.352079,14.352079 0 0 0 19.51017,-5.5937 z M 299.68328,381.7714 a 15.087713,15.087713 0 0 0 -2.60068,-21.17761 l -46.73874,-36.5163 a 15.087713,15.087713 0 0 0 -21.17905,2.59924 l -0.4962,0.63755 a 15.087713,15.087713 0 0 0 2.59925,21.17761 l 46.73873,36.5163 a 15.087713,15.087713 0 0 0 21.17905,-2.59924 z m 105.26781,-33.08046 a 14.020322,14.020322 0 0 0 -19.56066,-3.23823 l -0.77458,0.55389 a 14.020322,14.020322 0 0 0 -3.23823,19.5621 l 27.79399,38.81985 a 14.020322,14.020322 0 0 0 19.56066,3.23823 l 0.77458,-0.55389 a 14.020322,14.020322 0 0 0 3.23823,-19.5621 z m -41.3989,127.00508 a 13.25584,13.25584 0 0 0 -12.04997,-14.36073 l -35.92347,-3.14303 a 13.25584,13.25584 0 0 0 -14.36074,12.04997 l -0.16876,1.92563 a 13.25584,13.25584 0 0 0 12.04998,14.36074 l 35.92347,3.14303 a 13.25584,13.25584 0 0 0 14.36073,-12.04998 z m -101.51752,65.9085 a 14.784805,14.784805 0 0 0 -16.65562,-12.64137 l -51.98914,7.12123 a 14.784805,14.784805 0 0 0 -12.64137,16.65418 l 0.23511,1.71648 a 14.784805,14.784805 0 0 0 16.65418,12.63993 l 51.98915,-7.12123 a 14.784805,14.784805 0 0 0 12.64137,-16.65418 z m 195.69745,79.50331 a 14.049171,14.049171 0 0 0 -7.15152,-18.53654 l -0.97651,-0.43273 a 14.049171,14.049171 0 0 0 -18.5351,7.15296 l -15.51034,34.99888 a 14.049171,14.049171 0 0 0 7.15152,18.53654 l 0.97651,0.43273 a 14.049171,14.049171 0 0 0 18.5351,-7.15297 z m -111.32165,37.86929 a 15.203107,15.203107 0 0 0 -21.34925,-2.54587 l -41.21571,32.43281 a 15.203107,15.203107 0 0 0 -2.54587,21.34926 l 0.57119,0.72554 a 15.203107,15.203107 0 0 0 21.34926,2.54587 l 41.21571,-32.43281 a 15.203107,15.203107 0 0 0 2.54587,-21.34926 z"
     id="path38"
     style="stroke-width:1.44242;fill:#0d6efd;fill-opacity:1"
     inkscape:export-xdpi="483.07001"
     inkscape:export-ydpi="483.07001" />
  <rect
     fill="#fdfffd"
     x="396.9892"
     y="267.90598"
     transform="rotate(-7.5)"
     width="30.31967"
     height="91.593674"
     rx="14.510746"
     id="rect40"
     style="stroke-width:1.44242"
     inkscape:export-xdpi="483.07001"
     inkscape:export-ydpi="483.07001" />
  <rect
     fill="#fdfffd"
     x="644.04327"
     y="-96.796028"
     transform="rotate(28.999999)"
     width="29.858095"
     height="77.227173"
     rx="14.352079"
     id="rect42"
     style="stroke-width:1.44242"
     inkscape:export-xdpi="483.07001"
     inkscape:export-ydpi="483.07001" />
  <path
     fill="#0399df"
     d="m 844.8214,316.00138 0.3606,0.99527 a 1.298178,1.226057 16.6 0 0 0.20194,0.34618 c 42.66678,52.90796 64.41848,118.14862 70.85167,185.14903 q -0.50485,0.70679 -2.13478,1.02412 -15.00117,2.88484 -30.33409,5.65428 -4.15417,-62.68757 -32.51215,-119.93722 c -2.94254,-5.92835 -6.98131,-12.23172 -13.77511,-13.48663 -9.51997,-1.77417 -19.12649,4.41381 -17.92928,14.79923 q 0.3606,3.20218 4.08205,10.58737 26.48283,52.54736 30.27639,112.16258 -65.24065,12.80868 -130.45246,24.83847 c -46.27284,8.53912 -92.387,18.16007 -138.61656,26.9444 q -9.83731,1.87515 -36.96923,8.49586 l -32.61311,-22.93448 a 1.009694,1.009694 0 0 1 0,-1.64436 z"
     id="path44"
     style="stroke-width:1.44242;fill:#0d6efd;fill-opacity:1"
     inkscape:export-xdpi="483.07001"
     inkscape:export-ydpi="483.07001" />
  <rect
     fill="#fdfffd"
     x="381.70715"
     y="101.24918"
     transform="rotate(37.999999)"
     width="89.48774"
     height="30.983181"
     rx="15.087713"
     id="rect46"
     style="stroke-width:1.44242"
     inkscape:export-xdpi="483.07001"
     inkscape:export-ydpi="483.07001" />
  <rect
     fill="#fdfffd"
     x="97.293732"
     y="505.2316"
     transform="rotate(-35.6)"
     width="28.992643"
     height="75.784744"
     rx="14.020323"
     id="rect48"
     style="stroke-width:1.44242"
     inkscape:export-xdpi="483.07001"
     inkscape:export-ydpi="483.07001" />
  <path
     fill="#fdfffd"
     d="m 883.76674,509.17026 c 0.72121,11.68361 2.29344,23.91533 -1.54339,32.4833 q -13.48663,12.44809 -26.59823,-2.50981 -2.06266,-11.79899 -1.71648,-25.84816 -3.79356,-59.61522 -30.27639,-112.16258 -3.72145,-7.38519 -4.08205,-10.58737 c -1.19721,-10.38542 8.40931,-16.5734 17.92928,-14.79923 6.7938,1.25491 10.83257,7.55828 13.77511,13.48663 q 28.35798,57.24965 32.51215,119.93722 z"
     id="path50"
     style="stroke-width:1.442;stroke-miterlimit:4;stroke-dasharray:none"
     inkscape:export-xdpi="483.07001"
     inkscape:export-ydpi="483.07001" />
  <rect
     fill="#fdfffd"
     x="341.05603"
     y="428.94427"
     transform="rotate(5)"
     width="62.572182"
     height="28.444523"
     rx="13.255839"
     id="rect52"
     style="stroke-width:1.44242"
     inkscape:export-xdpi="483.07001"
     inkscape:export-ydpi="483.07001" />
  <path
     fill="#02507b"
     d="m 916.23561,502.49186 q 1.51454,0.67794 1.428,2.06266 c -1.11067,18.93897 -0.67794,38.3251 -3.11563,56.97559 -1.29818,9.92385 -2.37999,20.06406 -4.57247,29.71385 q -6.83707,30.01676 -12.04421,45.29199 -8.1641,23.91532 -23.59799,51.7973 -5.98604,10.81815 -15.28965,24.18939 c -12.72215,18.27546 -21.00164,30.73797 -34.38729,44.70059 q -0.0721,0.0577 -5.82738,6.63513 -6.4332,7.34192 -14.49632,9.17379 3.73587,-16.53013 -9.13052,-25.58853 -120.77383,-84.92969 -241.56208,-169.8738 -2.27902,-1.60109 -5.76968,-3.9955 27.13192,-6.62071 36.96923,-8.49586 c 46.22956,-8.78433 92.34372,-18.40528 138.61656,-26.9444 q 65.21181,-12.02979 130.45246,-24.83847 -0.34618,14.04917 1.71648,25.84816 -1.83187,4.18302 -1.94726,6.14471 c -2.50982,43.64763 -12.31827,83.0257 -35.62778,120.67286 -4.26956,6.89477 -12.89523,15.56371 -13.70299,23.39605 -0.93757,9.04397 5.8418,16.44359 14.98675,15.86662 10.77487,-0.67794 16.24164,-11.35184 22.76138,-22.04018 q 38.84437,-63.65399 41.67152,-138.60214 0.0577,-1.28375 -1.54339,-2.92811 c 3.83683,-8.56797 2.2646,-20.79969 1.54339,-32.4833 q 15.33292,-2.76944 30.33409,-5.65428 1.62993,-0.31733 2.13478,-1.02412 z m -141.95144,114.5368 a 15.3185,15.3185 0 0 0 -9.90221,-19.26784 l -57.98384,-18.61588 a 15.3185,15.3185 0 0 0 -19.26785,9.90222 l -0.30868,0.96065 a 15.3185,15.3185 0 0 0 9.90222,19.26929 l 57.98384,18.61587 a 15.3185,15.3185 0 0 0 19.26785,-9.90221 z"
     id="path54"
     style="stroke-width:1.44242;fill:#0d6efd;fill-opacity:1"
     inkscape:export-xdpi="483.07001"
     inkscape:export-ydpi="483.07001" />
  <rect
     fill="#fdfffd"
     x="104.06042"
     y="557.37054"
     transform="rotate(-7.8000002)"
     width="82.044853"
     height="31.300514"
     rx="14.784805"
     id="rect56"
     style="stroke-width:1.44242"
     inkscape:export-xdpi="483.07001"
     inkscape:export-ydpi="483.07001" />
  <path
     fill="#0399df"
     d="m 855.62512,539.14375 q 13.1116,14.9579 26.59823,2.50981 1.60108,1.64436 1.54339,2.92811 -2.82715,74.94815 -41.67152,138.60214 c -6.51974,10.68834 -11.98651,21.36224 -22.76138,22.04018 -9.14495,0.57697 -15.92432,-6.82265 -14.98675,-15.86662 0.80776,-7.83234 9.43343,-16.50128 13.70299,-23.39605 23.30951,-37.64716 33.11796,-77.02523 35.62778,-120.67286 q 0.11539,-1.96169 1.94726,-6.14471 z"
     id="path58"
     style="stroke-width:1.44242;fill:#ffffff;fill-opacity:1"
     inkscape:export-xdpi="483.07001"
     inkscape:export-ydpi="483.07001" />
  <rect
     fill="#0399df"
     x="834.30591"
     y="335.47803"
     transform="rotate(17.8)"
     width="91.535973"
     height="31.646696"
     rx="15.318501"
     id="rect60"
     style="stroke-width:1.44242;fill:#ffffff;fill-opacity:1"
     inkscape:export-xdpi="483.07001"
     inkscape:export-ydpi="483.07001" />
  <rect
     fill="#fdfffd"
     x="640.95435"
     y="368.35437"
     transform="rotate(23.9)"
     width="29.165731"
     height="66.380173"
     rx="14.04917"
     id="rect62"
     style="stroke-width:1.44242"
     inkscape:export-xdpi="483.07001"
     inkscape:export-ydpi="483.07001" />
  <rect
     fill="#fdfffd"
     x="-218.14099"
     y="716.88062"
     transform="rotate(-38.2)"
     width="82.8526"
     height="31.329361"
     rx="15.203107"
     id="rect64"
     style="stroke-width:1.44242"
     inkscape:export-xdpi="483.07001"
     inkscape:export-ydpi="483.07001" />
</svg>
