<?xml version="1.0" encoding="UTF-8"?>
<!DOCTYPE svg PUBLIC "-//W3C//DTD SVG 1.1//EN" "http://www.w3.org/Graphics/SVG/1.1/DTD/svg11.dtd">
<svg version="1.2" width="73.01mm" height="78.01mm" viewBox="1000 1000 7301 7801" preserveAspectRatio="xMidYMid" fill-rule="evenodd" stroke-width="28.222" stroke-linejoin="round" xmlns="http://www.w3.org/2000/svg" xmlns:ooo="http://xml.openoffice.org/svg/export" xmlns:xlink="http://www.w3.org/1999/xlink" xmlns:presentation="http://sun.com/xmlns/staroffice/presentation" xmlns:smil="http://www.w3.org/2001/SMIL20/" xmlns:anim="urn:oasis:names:tc:opendocument:xmlns:animation:1.0" xml:space="preserve">
 <defs class="ClipPathGroup">
  <clipPath id="presentation_clip_path" clipPathUnits="userSpaceOnUse">
   <rect x="1000" y="1000" width="7301" height="7801"/>
  </clipPath>
  <clipPath id="presentation_clip_path_shrink" clipPathUnits="userSpaceOnUse">
   <rect x="1007" y="1007" width="7287" height="7786"/>
  </clipPath>
 </defs>
 <defs class="TextShapeIndex">
  <g ooo:slide="id1" ooo:id-list="id3 id4 id5 id6 id7 id8 id9"/>
 </defs>
 <defs class="EmbeddedBulletChars">
  <g id="bullet-char-template-57356" transform="scale(0.00048828125,-0.00048828125)">
   <path d="M 580,1141 L 1163,571 580,0 -4,571 580,1141 Z"/>
  </g>
  <g id="bullet-char-template-57354" transform="scale(0.00048828125,-0.00048828125)">
   <path d="M 8,1128 L 1137,1128 1137,0 8,0 8,1128 Z"/>
  </g>
  <g id="bullet-char-template-10146" transform="scale(0.00048828125,-0.00048828125)">
   <path d="M 174,0 L 602,739 174,1481 1456,739 174,0 Z M 1358,739 L 309,1346 659,739 1358,739 Z"/>
  </g>
  <g id="bullet-char-template-10132" transform="scale(0.00048828125,-0.00048828125)">
   <path d="M 2015,739 L 1276,0 717,0 1260,543 174,543 174,936 1260,936 717,1481 1274,1481 2015,739 Z"/>
  </g>
  <g id="bullet-char-template-10007" transform="scale(0.00048828125,-0.00048828125)">
   <path d="M 0,-2 C -7,14 -16,27 -25,37 L 356,567 C 262,823 215,952 215,954 215,979 228,992 255,992 264,992 276,990 289,987 310,991 331,999 354,1012 L 381,999 492,748 772,1049 836,1024 860,1049 C 881,1039 901,1025 922,1006 886,937 835,863 770,784 769,783 710,716 594,584 L 774,223 C 774,196 753,168 711,139 L 727,119 C 717,90 699,76 672,76 641,76 570,178 457,381 L 164,-76 C 142,-110 111,-127 72,-127 30,-127 9,-110 8,-76 1,-67 -2,-52 -2,-32 -2,-23 -1,-13 0,-2 Z"/>
  </g>
  <g id="bullet-char-template-10004" transform="scale(0.00048828125,-0.00048828125)">
   <path d="M 285,-33 C 182,-33 111,30 74,156 52,228 41,333 41,471 41,549 55,616 82,672 116,743 169,778 240,778 293,778 328,747 346,684 L 369,508 C 377,444 397,411 428,410 L 1163,1116 C 1174,1127 1196,1133 1229,1133 1271,1133 1292,1118 1292,1087 L 1292,965 C 1292,929 1282,901 1262,881 L 442,47 C 390,-6 338,-33 285,-33 Z"/>
  </g>
  <g id="bullet-char-template-9679" transform="scale(0.00048828125,-0.00048828125)">
   <path d="M 813,0 C 632,0 489,54 383,161 276,268 223,411 223,592 223,773 276,916 383,1023 489,1130 632,1184 813,1184 992,1184 1136,1130 1245,1023 1353,916 1407,772 1407,592 1407,412 1353,268 1245,161 1136,54 992,0 813,0 Z"/>
  </g>
  <g id="bullet-char-template-8226" transform="scale(0.00048828125,-0.00048828125)">
   <path d="M 346,457 C 273,457 209,483 155,535 101,586 74,649 74,723 74,796 101,859 155,911 209,963 273,989 346,989 419,989 480,963 531,910 582,859 608,796 608,723 608,648 583,586 532,535 482,483 420,457 346,457 Z"/>
  </g>
  <g id="bullet-char-template-8211" transform="scale(0.00048828125,-0.00048828125)">
   <path d="M -4,459 L 1135,459 1135,606 -4,606 -4,459 Z"/>
  </g>
  <g id="bullet-char-template-61548" transform="scale(0.00048828125,-0.00048828125)">
   <path d="M 173,740 C 173,903 231,1043 346,1159 462,1274 601,1332 765,1332 928,1332 1067,1274 1183,1159 1299,1043 1357,903 1357,740 1357,577 1299,437 1183,322 1067,206 928,148 765,148 601,148 462,206 346,322 231,437 173,577 173,740 Z"/>
  </g>
 </defs>
 <defs class="TextEmbeddedBitmaps"/>
 <g class="SlideGroup">
  <g>
   <g id="container-id1">
    <g id="id1" class="Slide" clip-path="url(#presentation_clip_path)">
     <g class="Page">
      <g class="Group">
       <g class="com.sun.star.drawing.ClosedBezierShape">
        <g id="id3">
         <rect class="BoundingBox" stroke="none" fill="none" x="1377" y="7073" width="1509" height="1694"/>
         <path fill="rgb(128,128,128)" stroke="none" d="M 2885,8766 C 2810,8766 2735,8766 2660,8766 2660,8280 2660,7794 2660,7308 2503,7638 2346,7969 2189,8300 2144,8300 2100,8300 2055,8300 1899,7969 1743,7638 1588,7308 1588,7794 1588,8280 1588,8766 1518,8766 1447,8766 1377,8766 1377,8202 1377,7638 1377,7073 1480,7073 1582,7073 1684,7073 1835,7387 1985,7702 2136,8016 2281,7702 2427,7387 2572,7073 2676,7073 2780,7073 2885,7073 2885,7638 2885,8202 2885,8766 Z"/>
        </g>
       </g>
       <g class="com.sun.star.drawing.ClosedBezierShape">
        <g id="id4">
         <rect class="BoundingBox" stroke="none" fill="none" x="3341" y="7073" width="1117" height="1694"/>
         <path fill="rgb(128,128,128)" stroke="none" d="M 4456,8766 C 4085,8766 3713,8766 3341,8766 3341,8202 3341,7637 3341,7073 3713,7073 4085,7073 4456,7073 4456,7140 4456,7206 4456,7273 4160,7273 3863,7273 3566,7273 3566,7428 3566,7582 3566,7737 3863,7737 4160,7737 4456,7737 4456,7804 4456,7870 4456,7937 4160,7937 3863,7937 3566,7937 3566,8147 3566,8356 3566,8566 3863,8566 4160,8566 4456,8566 4456,8633 4456,8699 4456,8766 Z"/>
        </g>
       </g>
       <g class="com.sun.star.drawing.ClosedBezierShape">
        <g id="id5">
         <rect class="BoundingBox" stroke="none" fill="none" x="4814" y="7073" width="1293" height="1694"/>
         <path fill="rgb(128,128,128)" stroke="none" d="M 6106,8766 C 6013,8766 5920,8766 5827,8766 5560,8261 5292,7757 5025,7252 5025,7757 5025,8261 5025,8766 4955,8766 4884,8766 4814,8766 4814,8202 4814,7638 4814,7073 4931,7073 5047,7073 5163,7073 5407,7534 5651,7995 5895,8456 5895,7995 5895,7534 5895,7073 5965,7073 6036,7073 6106,7073 6106,7638 6106,8202 6106,8766 Z"/>
        </g>
       </g>
       <g class="com.sun.star.drawing.ClosedBezierShape">
        <g id="id6">
         <rect class="BoundingBox" stroke="none" fill="none" x="6529" y="7072" width="1301" height="1730"/>
         <path fill="rgb(128,128,128)" stroke="none" d="M 7829,8086 C 7829,8209 7815,8316 7788,8407 7761,8498 7717,8574 7656,8635 7597,8693 7529,8735 7451,8761 7373,8788 7282,8801 7178,8801 7072,8801 6980,8787 6901,8759 6822,8731 6756,8690 6702,8635 6641,8573 6597,8498 6570,8410 6543,8322 6529,8214 6529,8086 L 6529,7073 6754,7073 6754,8097 C 6754,8189 6761,8261 6773,8314 6786,8367 6807,8416 6836,8459 6870,8508 6915,8545 6972,8570 7029,8595 7098,8608 7178,8608 7259,8608 7328,8595 7385,8571 7442,8546 7488,8509 7522,8459 7551,8416 7572,8366 7585,8310 7597,8255 7604,8186 7604,8103 L 7604,7073 7829,7073 7829,8086 Z"/>
        </g>
       </g>
      </g>
      <g class="com.sun.star.drawing.RectangleShape">
       <g id="id7">
        <rect class="BoundingBox" stroke="none" fill="none" x="999" y="2999" width="7303" height="703"/>
        <path fill="rgb(128,128,128)" stroke="none" d="M 4650,3700 L 7800,3700 C 8076,3700 8300,3543 8300,3350 8300,3157 8076,3000 7800,3000 L 1500,3000 C 1224,3000 1000,3157 1000,3350 1000,3543 1224,3700 1500,3700 L 4650,3700 Z"/>
        <path fill="none" stroke="rgb(128,128,128)" d="M 4650,3700 L 7800,3700 C 8076,3700 8300,3543 8300,3350 8300,3157 8076,3000 7800,3000 L 1500,3000 C 1224,3000 1000,3157 1000,3350 1000,3543 1224,3700 1500,3700 L 4650,3700 Z"/>
       </g>
      </g>
      <g class="com.sun.star.drawing.RectangleShape">
       <g id="id8">
        <rect class="BoundingBox" stroke="none" fill="none" x="999" y="5199" width="7303" height="703"/>
        <path fill="rgb(128,128,128)" stroke="none" d="M 4650,5900 L 7800,5900 C 8076,5900 8300,5743 8300,5550 8300,5357 8076,5200 7800,5200 L 1500,5200 C 1224,5200 1000,5357 1000,5550 1000,5743 1224,5900 1500,5900 L 4650,5900 Z"/>
        <path fill="none" stroke="rgb(128,128,128)" d="M 4650,5900 L 7800,5900 C 8076,5900 8300,5743 8300,5550 8300,5357 8076,5200 7800,5200 L 1500,5200 C 1224,5200 1000,5357 1000,5550 1000,5743 1224,5900 1500,5900 L 4650,5900 Z"/>
       </g>
      </g>
      <g class="com.sun.star.drawing.RectangleShape">
       <g id="id9">
        <rect class="BoundingBox" stroke="none" fill="none" x="999" y="999" width="7303" height="703"/>
        <path fill="rgb(128,128,128)" stroke="none" d="M 4650,1700 L 7800,1700 C 8076,1700 8300,1543 8300,1350 8300,1157 8076,1000 7800,1000 L 1500,1000 C 1224,1000 1000,1157 1000,1350 1000,1543 1224,1700 1500,1700 L 4650,1700 Z"/>
        <path fill="none" stroke="rgb(128,128,128)" d="M 4650,1700 L 7800,1700 C 8076,1700 8300,1543 8300,1350 8300,1157 8076,1000 7800,1000 L 1500,1000 C 1224,1000 1000,1157 1000,1350 1000,1543 1224,1700 1500,1700 L 4650,1700 Z"/>
       </g>
      </g>
     </g>
    </g>
   </g>
  </g>
 </g>
</svg>